<?xml version="1.0" standalone="no"?>
<!DOCTYPE svg PUBLIC "-//W3C//DTD SVG 20010904//EN"
 "http://www.w3.org/TR/2001/REC-SVG-20010904/DTD/svg10.dtd">
<svg version="1.0" xmlns="http://www.w3.org/2000/svg"
 width="401.000000pt" height="401.000000pt" viewBox="0 0 401.000000 401.000000"
 preserveAspectRatio="xMidYMid meet">
<metadata>
Created by potrace 1.14, written by Peter Selinger 2001-2017
</metadata>
<g transform="translate(0.000000,401.000000) scale(0.100000,-0.100000)"
fill="#000000" stroke="none">
<path d="M2455 3866 c-147 -34 -269 -160 -303 -311 -5 -22 -9 -429 -10 -905 0
-476 -1 -871 -1 -878 -1 -10 -23 -13 -90 -11 -49 1 -95 5 -101 9 -10 6 -13
127 -13 524 0 512 0 516 -23 582 -50 143 -173 248 -319 269 -87 14 -974 9
-1025 -5 -108 -29 -189 -87 -246 -175 -69 -109 -66 -60 -66 -1144 0 -685 3
-990 11 -1024 35 -151 161 -275 311 -307 39 -8 197 -11 550 -8 446 3 499 5
540 21 89 35 169 105 217 189 46 80 50 124 51 484 0 186 1 346 1 354 1 14 16
15 99 12 53 -2 99 -6 101 -8 2 -1 3 -241 4 -531 0 -562 1 -571 50 -667 28 -55
117 -141 170 -165 100 -45 103 -45 562 -46 242 0 460 3 485 7 160 28 296 167
326 332 8 44 8 3021 0 3076 -22 150 -159 294 -312 328 -61 14 -909 12 -969 -2z"/>
</g>
</svg>
